# xmcd
#
# Track frame offsets: 
#        150
#        9011
#        20652
#        33388
#        41881
#        51547
#        61456
#        74458
#        84900
#        96582
#
# Disc length: 1487 seconds
#
# Revision: 0
# Processed by: cddbd v1.5.2PL0 Copyright (c) Steve Scherf et al.
# Submitted via: ExactAudioCopy v0.99pb4
#
DISCID=8605cd0a
DTITLE=The Degenerettes - Bad Girls Go To Hell
DYEAR=2009
DGENRE=Garage
TTITLE0=Truck Drivin Girlfriend
TTITLE1=I Was A Teenybopper For The CIA
TTITLE2=Never Say Never
TTITLE3=Fell In Love With A Mummy
TTITLE4=Queer For You
TTITLE5=Shake Baby Shake
TTITLE6=Get Out
TTITLE7=Ask
TTITLE8=College Type Jo
TTITLE9=Baltimore
EXTD=
EXTT0=
EXTT1=
EXTT2=
EXTT3=
EXTT4=
EXTT5=
EXTT6=
EXTT7=
EXTT8=
EXTT9=
PLAYORDER=
